<svg width="344" height="279" viewBox="0 0 344 279" fill="none" xmlns="http://www.w3.org/2000/svg">
<path d="M64.8572 42.8571H43.4286V64.2857H64.8572V42.8571Z" fill="white"/>
<path d="M64.8572 64.2857H43.4286V85.7143H64.8572V64.2857Z" fill="white"/>
<path d="M86.2857 21.4286H64.8572V42.8572H86.2857V21.4286Z" fill="white"/>
<path d="M107.714 21.4286H86.2858V42.8572H107.714V21.4286Z" fill="white"/>
<path d="M86.2857 85.7143H64.8572V107.143H86.2857V85.7143Z" fill="white"/>
<path d="M107.714 85.7143H86.2858V107.143H107.714V85.7143Z" fill="white"/>
<path d="M129.143 42.8571H107.714V64.2857H129.143V42.8571Z" fill="white"/>
<path d="M129.143 64.2857H107.714V85.7143H129.143V64.2857Z" fill="white"/>
<path d="M129.143 107.143H107.714V128.571H129.143V107.143Z" fill="white"/>
<path d="M129.143 128.571H107.714V150H129.143V128.571Z" fill="white"/>
<path d="M107.714 128.571H86.2858V150H107.714V128.571Z" fill="white"/>
<path d="M86.2857 128.571H64.8572V150H86.2857V128.571Z" fill="white"/>
<path d="M172 85.7143H150.571V107.143H172V85.7143Z" fill="white"/>
<path d="M172 64.2857H150.571V85.7143H172V64.2857Z" fill="white"/>
<path d="M172 42.8571H150.571V64.2857H172V42.8571Z" fill="white"/>
<path d="M193.429 21.4286H172V42.8572H193.429V21.4286Z" fill="white"/>
<path d="M172 107.143H150.571V128.571H172V107.143Z" fill="white"/>
<path d="M214.857 21.4286H193.429V42.8572H214.857V21.4286Z" fill="white"/>
<path d="M193.429 64.2857H172V85.7143H193.429V64.2857Z" fill="white"/>
<path d="M214.857 64.2857H193.429V85.7143H214.857V64.2857Z" fill="white"/>
<path d="M257.714 107.143H236.286V128.571H257.714V107.143Z" fill="white"/>
<path d="M300.571 107.143H279.143V128.571H300.571V107.143Z" fill="white"/>
<path d="M279.143 64.2857H257.714V85.7143H279.143V64.2857Z" fill="white"/>
<path d="M279.143 85.7143H257.714V107.143H279.143V85.7143Z" fill="white"/>
<path d="M64.8572 192.857H43.4286V214.286H64.8572V192.857Z" fill="white"/>
<path d="M86.2857 192.857H64.8572V214.286H86.2857V192.857Z" fill="white"/>
<path d="M107.714 192.857H86.2858V214.286H107.714V192.857Z" fill="white"/>
<path d="M150.571 192.857H129.143V214.286H150.571V192.857Z" fill="white"/>
<path d="M150.571 214.286H129.143V235.714H150.571V214.286Z" fill="white"/>
<path d="M150.571 171.429H129.143V192.857H150.571V171.429Z" fill="white"/>
<path d="M172 150H150.571V171.429H172V150Z" fill="white"/>
<path d="M193.429 150H172V171.429H193.429V150Z" fill="white"/>
<path d="M172 192.857H150.571V214.286H172V192.857Z" fill="white"/>
<path d="M150.571 235.714H129.143V257.143H150.571V235.714Z" fill="white"/>
<path d="M193.429 192.857H172V214.286H193.429V192.857Z" fill="white"/>
<path d="M279.143 150H257.714V171.429H279.143V150Z" fill="white"/>
<path d="M257.714 150H236.286V171.429H257.714V150Z" fill="white"/>
<path d="M236.286 171.429H214.857V192.857H236.286V171.429Z" fill="white"/>
<path d="M236.286 192.857H214.857V214.286H236.286V192.857Z" fill="white"/>
<path d="M236.286 214.286H214.857V235.714H236.286V214.286Z" fill="white"/>
<path d="M257.714 235.714H236.286V257.143H257.714V235.714Z" fill="white"/>
<path d="M279.143 235.714H257.714V257.143H279.143V235.714Z" fill="white"/>
<path d="M279.143 192.857H257.714V214.286H279.143V192.857Z" fill="white"/>
<path d="M257.714 192.857H236.286V214.286H257.714V192.857Z" fill="white"/>
<path d="M300.571 171.429H279.143V192.857H300.571V171.429Z" fill="white"/>
<path d="M300.571 42.8571H279.143V64.2857H300.571V42.8571Z" fill="white"/>
<path d="M257.714 42.8571H236.286V64.2857H257.714V42.8571Z" fill="white"/>
<path d="M22.5 278.071V0.5H321.5V278.071H22.5Z" stroke="#333333"/>
<path d="M22 21.4286H322" stroke="#333333"/>
<path d="M22 42.8571H322" stroke="#333333"/>
<path d="M22 64.2857H322" stroke="#333333"/>
<path d="M22 85.7143H322" stroke="#333333"/>
<path d="M22 107.143H322" stroke="#333333"/>
<path d="M22 128.571H322" stroke="#333333"/>
<path d="M22 150H322" stroke="#333333"/>
<path d="M22 171.429H322" stroke="#333333"/>
<path d="M22 192.857H322" stroke="#333333"/>
<path d="M22 214.286H322" stroke="#333333"/>
<path d="M22 235.714H322" stroke="#333333"/>
<path d="M22 257.143H322" stroke="#333333"/>
<path d="M43.4286 0V278.571" stroke="#333333"/>
<path d="M64.8572 0V278.571" stroke="#333333"/>
<path d="M86.2858 0V278.571" stroke="#333333"/>
<path d="M107.714 0V278.571" stroke="#333333"/>
<path d="M129.143 0V278.571" stroke="#333333"/>
<path d="M150.571 0V278.571" stroke="#333333"/>
<path d="M172 0V278.571" stroke="#333333"/>
<path d="M193.429 0V278.571" stroke="#333333"/>
<path d="M214.857 0V278.571" stroke="#333333"/>
<path d="M236.286 0V278.571" stroke="#333333"/>
<path d="M257.714 0V278.571" stroke="#333333"/>
<path d="M279.143 0V278.571" stroke="#333333"/>
<path d="M300.571 0V278.571" stroke="#333333"/>
<path d="M43.9286 256.643V21.9286H300.071V256.643H43.9286Z" stroke="#0000FF"/>
<path d="M1.07141 256.643V21.9286H42.9286V256.643H1.07141Z" fill="#0000FF" stroke="#0000FF"/>
<path d="M301.071 256.643V21.9286H342.929V256.643H301.071Z" fill="#0000FF" stroke="#0000FF"/>
</svg>
