<svg width="25" height="25" viewBox="0 0 25 25" fill="none" xmlns="http://www.w3.org/2000/svg">
<path fill-rule="evenodd" clip-rule="evenodd" d="M9.63638 2H11.5455H13.4546H15.3636V3.90909V5.81818L17.2726 5.81819V7.72729V9.63635V11.5455L19.1818 11.5455V13.4545V15.3637V17.2727L21.0909 17.2727V19.1818V21.0909V23H19.1818H17.2727V21.0909L17.2726 19.1818H15.3636H13.4546H11.5455H9.63628H7.72726V21.0909V23H5.81815H3.90906V21.0909V19.1818V17.2727L5.81817 17.2727V15.3637V13.4545V11.5455L7.72719 11.5455V9.63635V7.72729V5.81819L9.63638 5.81818V3.90909V2ZM13.4547 7.72729H11.5456V9.63635V11.5455H9.63638V13.4545V15.3637L11.5456 15.3636H13.4547L15.3636 15.3637V13.4545L15.3637 11.5455H13.4546V9.63635L13.4547 7.72729Z" fill="currentColor"/>
</svg>
