<svg width="25" height="25" viewBox="0 0 25 25" fill="none" xmlns="http://www.w3.org/2000/svg">
<path d="M2 2.49913H8.82898L8.81403 13.8709L6.05275 16.6322L6.21054 20.6163L8.82524 20.7177L8.82898 23H2V2.49913Z" fill="currentColor"/>
<path d="M5.92811 16.7288L5.221 16.0217L4.92856 16.3141L4.92811 16.7277L5.92811 16.7288ZM18.549 4.10785L19.2561 3.40075C19.0686 3.21321 18.8142 3.10785 18.549 3.10785C18.2838 3.10785 18.0295 3.21321 17.8419 3.40075L18.549 4.10785ZM22.7124 8.27123L23.4195 8.97834C23.81 8.58781 23.81 7.95465 23.4195 7.56412L22.7124 8.27123ZM10.0915 20.8921L10.0908 21.8921L10.5054 21.8924L10.7986 21.5993L10.0915 20.8921ZM5.92358 20.8892L4.92358 20.8881C4.9233 21.1534 5.02843 21.4079 5.21584 21.5956C5.40325 21.7834 5.65759 21.889 5.92287 21.8892L5.92358 20.8892ZM6.63521 17.4359L19.2561 4.81496L17.8419 3.40075L5.221 16.0217L6.63521 17.4359ZM17.8419 4.81496L22.0053 8.97834L23.4195 7.56412L19.2561 3.40075L17.8419 4.81496ZM22.0053 7.56412L9.38437 20.185L10.7986 21.5993L23.4195 8.97834L22.0053 7.56412ZM10.0922 19.8921L5.9243 19.8892L5.92287 21.8892L10.0908 21.8921L10.0922 19.8921ZM6.92358 20.8903L6.92811 16.7299L4.92811 16.7277L4.92358 20.8881L6.92358 20.8903Z" fill="currentColor"/>
</svg>
