<svg width="301" height="279" viewBox="0 0 301 279" fill="none" xmlns="http://www.w3.org/2000/svg">
<rect width="300" height="278.571" transform="translate(0.345703 0.39249)" fill="black"/>
<path d="M43.203 43.2496H21.7744V64.6782H43.203V43.2496Z" fill="white"/>
<path d="M43.203 64.6782H21.7744V86.1068H43.203V64.6782Z" fill="white"/>
<path d="M64.6315 21.8211H43.2029V43.2496H64.6315V21.8211Z" fill="white"/>
<path d="M86.0602 21.8211H64.6316V43.2496H86.0602V21.8211Z" fill="white"/>
<path d="M64.6315 86.1068H43.2029V107.535H64.6315V86.1068Z" fill="white"/>
<path d="M86.0602 86.1068H64.6316V107.535H86.0602V86.1068Z" fill="white"/>
<path d="M107.489 43.2496H86.0601V64.6782H107.489V43.2496Z" fill="white"/>
<path d="M107.489 64.6782H86.0601V86.1068H107.489V64.6782Z" fill="white"/>
<path d="M107.489 107.535H86.0601V128.964H107.489V107.535Z" fill="white"/>
<path d="M107.489 128.964H86.0601V150.392H107.489V128.964Z" fill="white"/>
<path d="M86.0602 128.964H64.6316V150.392H86.0602V128.964Z" fill="white"/>
<path d="M64.6315 128.964H43.2029V150.392H64.6315V128.964Z" fill="white"/>
<path d="M150.346 86.1068H128.917V107.535H150.346V86.1068Z" fill="white"/>
<path d="M150.346 64.6782H128.917V86.1068H150.346V64.6782Z" fill="white"/>
<path d="M150.346 43.2496H128.917V64.6782H150.346V43.2496Z" fill="white"/>
<path d="M171.775 21.8211H150.346V43.2496H171.775V21.8211Z" fill="white"/>
<path d="M150.346 107.535H128.917V128.964H150.346V107.535Z" fill="white"/>
<path d="M193.203 21.8211H171.774V43.2496H193.203V21.8211Z" fill="white"/>
<path d="M171.775 64.6782H150.346V86.1068H171.775V64.6782Z" fill="white"/>
<path d="M193.203 64.6782H171.774V86.1068H193.203V64.6782Z" fill="white"/>
<path d="M236.06 107.535H214.632V128.964H236.06V107.535Z" fill="white"/>
<path d="M278.917 107.535H257.489V128.964H278.917V107.535Z" fill="white"/>
<path d="M257.489 64.6782H236.06V86.1068H257.489V64.6782Z" fill="white"/>
<path d="M257.489 86.1068H236.06V107.535H257.489V86.1068Z" fill="white"/>
<path d="M43.203 193.25H21.7744V214.678H43.203V193.25Z" fill="white"/>
<path d="M64.6315 193.25H43.2029V214.678H64.6315V193.25Z" fill="white"/>
<path d="M86.0602 193.25H64.6316V214.678H86.0602V193.25Z" fill="white"/>
<path d="M128.917 193.25H107.489V214.678H128.917V193.25Z" fill="white"/>
<path d="M128.917 214.678H107.489V236.107H128.917V214.678Z" fill="white"/>
<path d="M128.917 171.821H107.489V193.25H128.917V171.821Z" fill="white"/>
<path d="M150.346 150.392H128.917V171.821H150.346V150.392Z" fill="white"/>
<path d="M171.775 150.392H150.346V171.821H171.775V150.392Z" fill="white"/>
<path d="M150.346 193.25H128.917V214.678H150.346V193.25Z" fill="white"/>
<path d="M128.917 236.107H107.489V257.535H128.917V236.107Z" fill="white"/>
<path d="M171.775 193.25H150.346V214.678H171.775V193.25Z" fill="white"/>
<path d="M257.489 150.392H236.06V171.821H257.489V150.392Z" fill="white"/>
<path d="M236.06 150.392H214.632V171.821H236.06V150.392Z" fill="white"/>
<path d="M214.631 171.821H193.203V193.25H214.631V171.821Z" fill="white"/>
<path d="M214.631 193.25H193.203V214.678H214.631V193.25Z" fill="white"/>
<path d="M214.631 214.678H193.203V236.107H214.631V214.678Z" fill="white"/>
<path d="M236.06 236.107H214.632V257.535H236.06V236.107Z" fill="white"/>
<path d="M257.489 236.107H236.06V257.535H257.489V236.107Z" fill="white"/>
<path d="M257.489 193.25H236.06V214.678H257.489V193.25Z" fill="white"/>
<path d="M236.06 193.25H214.632V214.678H236.06V193.25Z" fill="white"/>
<path d="M278.917 171.821H257.489V193.25H278.917V171.821Z" fill="white"/>
<path d="M278.917 43.2496H257.489V64.6782H278.917V43.2496Z" fill="white"/>
<path d="M236.06 43.2496H214.632V64.6782H236.06V43.2496Z" fill="white"/>
</svg>
